<svg width="148" height="148" viewBox="0 0 148 148" fill="none" xmlns="http://www.w3.org/2000/svg">
<rect width="148" height="148" rx="41.0443" fill="#EFF6FF"/>
<rect x="12" y="12" width="124" height="124" rx="41.0443" fill="#00618A"/>
<path d="M25.8242 95.2135H29.0742V81.7652L34.1057 93.489C34.6994 94.908 35.512 95.41 37.1056 95.41C38.6995 95.41 39.4807 94.908 40.0746 93.489L45.1059 81.7652V95.2135H48.3561V81.7873C48.3561 80.4775 47.8559 79.8442 46.8248 79.5169C44.356 78.7091 42.6996 79.4077 41.9495 81.1542L37.0119 92.7247L32.2306 81.1542C31.5119 79.4077 29.8243 78.7091 27.3556 79.5169C26.3242 79.8442 25.8242 80.4775 25.8242 81.7873V95.2135Z" fill="white"/>
<path d="M51.0576 84.2665H54.3067V91.6755C54.2763 92.0781 54.4299 93.0227 56.2104 93.0522C57.1187 93.067 63.2207 93.0522 63.2777 93.0522V84.2305H66.5343C66.5492 84.2305 66.531 96.2607 66.5313 96.3119C66.5492 99.2789 63.018 99.9233 61.3904 99.9732H51.1282V97.6822C51.1462 97.6822 61.3828 97.6843 61.4086 97.6817C63.5004 97.4501 63.2534 96.3607 63.2531 95.994V95.1008H56.3452C53.1314 95.0698 51.0847 93.6001 51.0594 91.9092C51.0571 91.7524 51.1287 84.3405 51.0576 84.2665Z" fill="white"/>
<path d="M69.04 95.2115H78.3838C79.4776 95.2115 80.5403 94.9715 81.3841 94.5565C82.7902 93.88 83.4778 92.9632 83.4778 91.7621V89.2735C83.4778 88.291 82.6966 87.3739 81.1652 86.7629C80.3525 86.4352 79.3526 86.2607 78.3838 86.2607H74.4461C73.1339 86.2607 72.5088 85.8459 72.3526 84.9291C72.3212 84.8199 72.3212 84.7323 72.3212 84.6233V83.0736C72.3212 82.986 72.3212 82.8985 72.3526 82.7895C72.5088 82.091 72.8527 81.8942 74.0088 81.7852C74.1027 81.7852 74.2274 81.7632 74.3213 81.7632H83.6028V79.4932H74.4775C73.165 79.4932 72.4774 79.5804 71.8525 79.7767C69.9149 80.4099 69.0712 81.4142 69.0712 83.1608V85.1474C69.0712 86.6757 70.7276 87.9855 73.5087 88.291C73.8215 88.3127 74.1338 88.3345 74.4461 88.3345H77.8212C77.9465 88.3345 78.0715 88.3345 78.1651 88.3565C79.1964 88.444 79.6338 88.6402 79.9466 89.0333C80.1339 89.2295 80.1964 89.4263 80.1964 89.6445V91.6311C80.1964 91.8714 80.0402 92.1771 79.7279 92.4389C79.4465 92.7009 78.9778 92.8757 78.3527 92.9194C78.2277 92.9194 78.134 92.9412 78.009 92.9412H69.04V95.2115Z" fill="#E48E00"/>
<path d="M103.75 91.2601C103.75 93.5959 105.406 94.906 108.75 95.168C109.062 95.1898 109.375 95.2115 109.687 95.2115H118.156V92.9412H109.625C107.719 92.9412 107 92.4389 107 91.2384V79.4932H103.75V91.2601Z" fill="#E48E00"/>
<path d="M85.5496 91.3796V83.2853C85.5496 81.229 86.9276 79.9818 89.6518 79.588C89.9337 79.5445 90.247 79.5225 90.5287 79.5225H96.6978C97.0109 79.5225 97.293 79.5445 97.6061 79.588C100.331 79.9818 101.708 81.229 101.708 83.2853V91.3796C101.708 93.0479 101.123 93.9408 99.7745 94.5226L102.976 97.5506H99.2023L96.6123 95.1008L94.0048 95.2739H90.5287C89.9337 95.2739 89.3076 95.1862 88.6184 94.9894C86.5518 94.3988 85.5496 93.2611 85.5496 91.3796ZM89.0575 91.1828C89.0575 91.2923 89.0887 91.4016 89.12 91.5328C89.3078 92.4735 90.1534 92.9986 91.4372 92.9986H94.3899L91.6777 90.4328H95.4514L97.8169 92.6705C98.2527 92.4271 98.5397 92.0547 98.6399 91.5766C98.6711 91.4673 98.6711 91.3578 98.6711 91.2486V83.4823C98.6711 83.3948 98.6711 83.2853 98.6399 83.1758C98.4519 82.3009 97.6064 81.7978 96.3539 81.7978H91.4372C89.997 81.7978 89.0575 82.4542 89.0575 83.4823V91.1828Z" fill="#E48E00"/>
<path d="M119.277 78.8423C117.279 78.7855 115.753 78.9802 114.449 79.5567C114.078 79.7206 113.487 79.7248 113.426 80.2117C113.63 80.4356 113.662 80.7697 113.824 81.045C114.135 81.5732 114.661 82.281 115.13 82.6523C115.643 83.0578 116.171 83.4917 116.721 83.8428C117.699 84.4676 118.79 84.8243 119.732 85.4501C120.287 85.819 120.838 86.2836 121.379 86.7C121.647 86.9058 121.827 87.2259 122.174 87.3547C122.174 87.3351 122.174 87.3152 122.174 87.2953C121.992 87.0516 121.945 86.7164 121.777 86.4618C121.531 86.2041 121.284 85.946 121.038 85.688C120.316 84.6837 119.4 83.8017 118.425 83.0689C117.648 82.4844 115.909 81.695 115.585 80.7474C115.566 80.7275 115.547 80.7076 115.528 80.6878C116.079 80.6228 116.724 80.4138 117.232 80.2711C118.087 80.0311 118.85 80.0932 119.732 79.8545C120.129 79.7354 120.527 79.6161 120.925 79.4973C120.925 79.4177 120.925 79.3387 120.925 79.2592C120.479 78.7797 120.161 78.1453 119.675 77.7115C118.403 76.5765 117.014 75.4425 115.585 74.4969C114.792 73.9725 113.812 73.6317 112.972 73.1872C112.689 73.0378 112.193 72.9601 112.006 72.711C111.564 72.1213 111.324 71.3739 110.984 70.687C110.27 69.2482 109.57 67.6767 108.938 66.163C108.507 65.1307 108.226 64.1126 107.689 63.1865C105.109 58.7427 102.333 56.0604 98.0316 53.424C97.1165 52.8634 96.0145 52.6419 94.8501 52.3526C94.2255 52.313 93.6004 52.2731 92.9755 52.2335C92.5942 52.0665 92.1973 51.5775 91.8395 51.3406C90.4146 50.3974 86.7599 48.3457 85.7045 51.043C85.0382 52.7455 86.7004 54.4069 87.2949 55.2695C87.7122 55.8747 88.2465 56.5533 88.5446 57.2339C88.7407 57.6811 88.7746 58.1297 88.9424 58.6031C89.3555 59.769 89.7146 61.0375 90.2488 62.1151C90.5189 62.6603 90.8165 63.2347 91.1579 63.7223C91.3672 64.0215 91.7258 64.1533 91.7825 64.6153C91.4317 65.1296 91.4118 65.928 91.2146 66.5797C90.3268 69.5131 90.6616 73.1593 91.9531 75.3303C92.3494 75.9967 93.2828 77.4261 94.5662 76.878C95.6888 76.3988 95.438 74.9139 95.7592 73.6039C95.8318 73.3069 95.7873 73.0886 95.9295 72.8897C95.9295 72.9093 95.9295 72.9293 95.9295 72.9492C96.2704 73.6635 96.6113 74.3778 96.9522 75.0919C97.7089 76.3691 99.052 77.7038 100.19 78.6044C100.78 79.0714 101.245 79.8789 102.008 80.1521C102.008 80.1322 102.008 80.1126 102.008 80.0924C101.989 80.0924 101.97 80.0924 101.951 80.0924C101.803 79.8508 101.572 79.7508 101.383 79.5567C100.938 79.1 100.444 78.5323 100.077 78.009C99.0414 76.5364 98.1265 74.9246 97.2931 73.2468C96.895 72.4458 96.5491 71.5619 96.2135 70.7466C96.0841 70.4322 96.0857 69.957 95.8161 69.7941C95.4487 70.3916 94.9073 70.8746 94.6231 71.58C94.1686 72.7076 94.1099 74.0828 93.9416 75.5088C93.8418 75.5462 93.8861 75.5204 93.8277 75.5682C93.0365 75.3682 92.7584 74.5147 92.4646 73.7826C91.7208 71.9309 91.5826 68.9493 92.2371 66.8179C92.4064 66.2665 93.1717 64.5296 92.8619 64.0202C92.7141 63.5118 92.2262 63.2178 91.9531 62.8294C91.6152 62.3492 91.2779 61.7171 91.044 61.1626C90.4354 59.7188 90.1512 58.0981 89.5104 56.6387C89.2041 55.941 88.6861 55.2351 88.2606 54.6148C87.7897 53.9278 87.2622 53.4217 86.8973 52.5907C86.7675 52.2954 86.5911 51.8228 86.7837 51.5192C86.8449 51.3144 86.9312 51.2289 87.1246 51.1621C87.4541 50.8959 88.3717 51.2507 88.7149 51.4001C89.626 51.7966 90.3863 52.1742 91.1579 52.7098C91.5284 52.9672 91.903 53.465 92.3507 53.6027C92.521 53.6027 92.6916 53.6027 92.8619 53.6027C93.6616 53.7954 94.5576 53.6626 95.3047 53.9003C96.6252 54.3209 97.8086 54.9751 98.8835 55.6862C102.158 57.8526 104.835 60.9365 106.666 64.6153C106.961 65.2076 107.088 65.7729 107.348 66.4012C107.871 67.6681 108.531 68.9718 109.052 70.2108C109.572 71.4469 110.078 72.6944 110.813 73.7231C111.199 74.2638 112.691 74.5539 113.369 74.854C113.845 75.0646 114.623 75.2839 115.074 75.5682C115.934 76.1118 116.767 76.7589 117.573 77.3543C117.976 77.6518 119.216 78.3045 119.277 78.8423Z" fill="white"/>
</svg>
