<svg width="320" height="96" viewBox="0 0 320 96" fill="none" xmlns="http://www.w3.org/2000/svg">
<path d="M15.5575 43.1112C16.5282 40.8233 15.4603 38.1817 13.1724 37.2111C10.8845 36.2405 8.24291 37.3084 7.27229 39.5963L15.5575 43.1112ZM197.308 36.8583L196.592 41.3009L197.308 36.8583ZM251.855 54.5863L254.729 58.0493L251.855 54.5863ZM319.108 23.7791C320.168 21.5316 319.206 18.8497 316.959 17.7889L280.334 0.501397C278.086 -0.559449 275.405 0.402522 274.344 2.65001C273.283 4.89751 274.245 7.57945 276.492 8.64029L309.048 24.0069L293.681 56.5625C292.62 58.81 293.582 61.492 295.83 62.5528C298.077 63.6136 300.759 62.6517 301.82 60.4042L319.108 23.7791ZM7.27229 39.5963C1.85154 52.3738 -0.510939 62.4867 0.353195 70.2003C0.796983 74.1617 2.1068 77.6186 4.39879 80.4092C6.68837 83.197 9.71705 85.0266 13.1185 86.1341C19.7265 88.2857 28.2204 87.867 37.3945 86.2156C46.7043 84.5397 57.358 81.4657 68.6212 77.7302C79.9003 73.9894 91.9408 69.5337 104.02 65.0566C116.13 60.5684 128.284 56.0569 139.909 52.152C151.542 48.2446 162.53 44.9845 172.291 42.9796C182.121 40.9604 190.347 40.2937 196.592 41.3009L198.025 32.4158C190.179 31.1502 180.691 32.0662 170.48 34.1636C160.2 36.2752 148.817 39.6655 137.043 43.6204C125.261 47.578 112.971 52.141 100.893 56.6176C88.7844 61.1053 76.8928 65.5048 65.788 69.1877C54.6672 72.876 44.4852 75.7945 35.8 77.3579C26.979 78.9458 20.3184 79.0134 15.9049 77.5764C13.7957 76.8896 12.3469 75.9063 11.3538 74.6971C10.3631 73.4908 9.58499 71.7669 9.29725 69.1983C8.69831 63.852 10.2982 55.5084 15.5575 43.1112L7.27229 39.5963ZM196.592 41.3009C231.879 46.9925 257.015 53.496 269.852 60.8233C276.416 64.5701 278.327 67.7104 278.474 69.8318C278.619 71.931 277.197 75.4954 270.509 80.5384L275.928 87.7242C283.105 82.3124 287.933 76.1607 287.453 69.2116C286.974 62.2847 281.386 57.0443 274.313 53.0071C259.877 44.7663 233.193 38.0881 198.025 32.4158L196.592 41.3009ZM270.509 80.5384C264.137 85.3441 259.072 86.6311 255.544 86.3439C252.137 86.0666 249.597 84.2903 248.014 81.5787C244.749 75.988 245.467 65.735 254.729 58.0493L248.981 51.1234C236.88 61.1656 234.416 76.1399 240.242 86.1171C243.204 91.1894 248.277 94.7822 254.814 95.3143C261.229 95.8365 268.437 93.3733 275.928 87.7242L270.509 80.5384ZM254.729 58.0493C262.85 51.3098 274.77 44.5659 286.593 38.8272C298.356 33.1176 309.73 28.543 316.557 26.0941L313.519 17.6225C306.406 20.1737 294.734 24.8718 282.663 30.7306C270.653 36.5604 257.951 43.6805 248.981 51.1234L254.729 58.0493Z" fill="url(#paint0_linear_603_2377)"/>
<defs>
<linearGradient id="paint0_linear_603_2377" x1="-230.133" y1="134.88" x2="306.529" y2="74.2619" gradientUnits="userSpaceOnUse">
<stop stop-color="#FFF278"/>
<stop offset="1" stop-color="#F28D2F"/>
</linearGradient>
</defs>
</svg>
