<svg width="32" height="32" viewBox="0 0 32 32" fill="none" xmlns="http://www.w3.org/2000/svg">
<path d="M30.3243 30.1377C30.6999 29.7448 30.6929 29.1239 30.3086 28.7396L22.62 21.051C24.6338 18.6334 25.638 15.5325 25.4237 12.3934C25.2094 9.25432 23.7932 6.31868 21.4696 4.19718C19.146 2.07569 16.0939 0.931684 12.9483 1.00316C9.80271 1.07463 6.80577 2.35608 4.58092 4.58092C2.35608 6.80577 1.07463 9.80271 1.00316 12.9483C0.931684 16.0939 2.07569 19.146 4.19718 21.4696C6.31868 23.7932 9.25432 25.2094 12.3934 25.4237C15.5325 25.6379 18.6334 24.6338 21.051 22.62L28.7768 30.2827C29.1741 30.6767 29.8172 30.6682 30.2039 30.2638L30.3243 30.1377ZM3.25896 13.2457C3.25896 11.2705 3.84468 9.3397 4.94204 7.69738C6.0394 6.05507 7.59912 4.77504 9.42396 4.01916C11.2488 3.26329 13.2568 3.06552 15.1941 3.45086C17.1313 3.8362 18.9108 4.78735 20.3075 6.18402C21.7041 7.5807 22.6553 9.36017 23.0406 11.2974C23.426 13.2347 23.2282 15.2427 22.4723 17.0675C21.7164 18.8924 20.4364 20.4521 18.7941 21.5494C17.1518 22.6468 15.2209 23.2325 13.2457 23.2325C10.598 23.2296 8.05951 22.1765 6.18727 20.3042C4.31502 18.432 3.2619 15.8935 3.25896 13.2457Z" fill="#9D9D9D" stroke="#9D9D9D"/>
</svg>
